<svg width="54" height="44" viewBox="0 0 54 44" fill="none" xmlns="http://www.w3.org/2000/svg">
<path d="M6.71167 29.7673C9.57693 23.0111 8.40341 17.124 8.40341 10.1223C8.40341 8.76031 8.15628 4.61133 9.58763 3.86876C11.845 2.69768 13.9544 1.91625 16.6178 1.91625C18.3884 1.91625 20.1675 1.96726 21.9373 1.91625C23.7075 1.86523 25.4222 1.14516 27.1724 0.930777C30.4288 0.531892 33.8158 1.08735 37.0314 1.08735C39.5847 1.08735 42.226 1.41891 44.6819 1.41891C45.1179 1.41891 46.8955 1.6268 47.1819 1.87941C48.0585 2.6525 47.8074 3.89232 48.4977 4.56872" stroke="#00ADB5" stroke-opacity="0.2" stroke-width="1.28667" stroke-linecap="round" stroke-linejoin="round"/>
<path d="M48.3293 5.16748C48.4408 7.16123 48.4826 9.95901 49.3028 11.9072C49.8344 13.1696 49.4106 14.8498 49.5181 16.1943C49.7246 18.7754 49.3403 21.2912 49.3403 23.7952C49.3403 27.1543 49.5088 30.4704 49.5088 33.8111C49.5088 36.6785 46.7071 36.1984 44.4914 35.7956C42.5774 35.4476 40.0088 36.1454 38.0139 36.17C34.1653 36.2175 30.2987 36.507 26.4441 36.507C23.2248 36.507 20.8342 35.5721 17.8697 34.4477C16.2866 33.8472 15.3298 33.9796 13.6293 33.9796C12.0188 33.9796 10.6945 33.7279 9.08003 34.2324C8.1355 34.5275 6.44401 34.2727 5.90677 33.3057C5.26256 32.1461 6.54329 31.6432 6.54329 30.694C6.54329 29.8971 6.44312 27.618 6.71178 29.7673" stroke="#00ADB5" stroke-opacity="0.2" stroke-width="1.28667" stroke-linecap="round" stroke-linejoin="round"/>
<path d="M25.9199 9.54817C25.9199 9.54817 26.5939 9.88516 27.2679 10.5591C27.9418 11.0647 29.3605 10.8119 30.5535 10.8119C31.1812 10.8119 31.844 10.3226 32.4069 10.0724C33.5471 9.56568 32.867 10.5188 32.5941 11.0647C32.292 11.6689 32.637 12.7922 33.1838 13.1708C34.086 13.7954 34.9786 13.2563 35.861 12.8151C36.2273 12.6319 36.1267 12.547 36.2401 12.7964C36.3938 13.1346 36.3664 13.6254 36.3664 13.9945C36.3664 14.8345 36.3113 16.2301 35.861 16.9618C35.2686 17.9245 34.67 18.5476 33.7174 19.2552C32.7763 19.9543 31.5329 21.1742 30.282 21.1742C27.8375 21.1742 25.2429 20.6415 24.0197 18.263C23.5012 17.2548 22.5501 16.4293 22.5501 15.2769C22.5501 14.3154 22.2319 13.1632 22.5501 12.2441C22.9358 11.1299 23.898 10.0724 23.5611 10.0724C23.7329 10.1215 25.246 9.21119 25.9199 9.54817Z" stroke="#00ADB5" stroke-opacity="0.2" stroke-width="1.28667" stroke-linecap="round" stroke-linejoin="round"/>
<path d="M28.7 8.95845C29.6479 8.60759 31.813 7.87253 32.3226 6.72593C32.7164 5.8398 31.4146 5.67285 30.7219 5.67285C29.8817 5.67285 28.886 6.83404 28.6625 7.56839C28.5382 7.97676 28.4201 8.3947 28.2975 8.80868C28.2383 9.00823 28.3173 9.15291 28.3583 9.33755C28.3896 9.47819 29.675 8.80328 29.6267 8.60997" stroke="#00ADB5" stroke-opacity="0.2" stroke-width="1.28667" stroke-linecap="round" stroke-linejoin="round"/>
<path d="M45.3816 27.9174L8.42012 28.7292C4.47383 28.8159 1.31995 32.0398 1.31995 35.987C1.31995 39.9964 4.57018 43.2466 8.57954 43.2466H45.55C49.7835 43.2466 53.2155 39.8147 53.2155 35.5811C53.2155 31.2817 49.6801 27.823 45.3816 27.9174Z" fill="#00ADB5" fill-opacity="0.2" stroke="#00ADB5" stroke-opacity="0.2" stroke-width="1.28667"/>
<path d="M16.5917 28.5258C17.1513 29.3934 17.6344 30.4348 18.2765 31.2374C18.5994 31.6411 18.5476 31.559 19.1737 31.3271C20.2188 30.94 21.403 31.2174 22.4934 31.2174C23.4507 31.2174 24.5637 30.7177 25.4942 30.9682C26.572 31.2584 27.8427 30.7044 28.9036 30.6791C30.182 30.6487 31.4006 30.7688 32.672 30.7688C33.4385 30.7688 34.1857 30.3202 34.8951 30.3202C35.3067 30.3202 36.4799 30.6465 36.5101 29.8915C36.5248 29.5238 36.6896 29.1666 36.6896 28.7949C36.6896 28.2922 36.3887 28.5099 35.8821 28.2566" stroke="#00ADB5" stroke-opacity="0.2" stroke-width="1.28667" stroke-linecap="round" stroke-linejoin="round"/>
</svg>
